G04 (created by PCBNEW-RS274X (2012-jan-04)-stable) date Thu 08 Nov 2012 06:26:56 PM CET*
G01*
G70*
G90*
%MOIN*%
G04 Gerber Fmt 3.4, Leading zero omitted, Abs format*
%FSLAX34Y34*%
G04 APERTURE LIST*
%ADD10C,0.006000*%
%ADD11C,0.015000*%
G04 APERTURE END LIST*
G54D10*
G54D11*
X46390Y-40491D02*
X65640Y-40491D01*
X46390Y-29491D02*
X65640Y-29491D01*
X46390Y-40491D02*
X46390Y-29491D01*
X65640Y-29491D02*
X65640Y-40491D01*
X65640Y-17680D02*
X65640Y-28680D01*
X46390Y-28680D02*
X46390Y-17680D01*
X46390Y-17680D02*
X65640Y-17680D01*
X46390Y-28680D02*
X65640Y-28680D01*
X46390Y-16869D02*
X65640Y-16869D01*
X46390Y-05869D02*
X65640Y-05869D01*
X46390Y-16869D02*
X46390Y-05869D01*
X65640Y-05869D02*
X65640Y-16869D01*
X45561Y-05869D02*
X45561Y-16869D01*
X26311Y-16869D02*
X26311Y-05869D01*
X26311Y-05869D02*
X45561Y-05869D01*
X26311Y-16869D02*
X45561Y-16869D01*
X26311Y-28680D02*
X45561Y-28680D01*
X26311Y-17680D02*
X45561Y-17680D01*
X26311Y-28680D02*
X26311Y-17680D01*
X45561Y-17680D02*
X45561Y-28680D01*
X45561Y-29491D02*
X45561Y-40491D01*
X26311Y-40491D02*
X26311Y-29491D01*
X26311Y-29491D02*
X45561Y-29491D01*
X26311Y-40491D02*
X45561Y-40491D01*
X06232Y-40491D02*
X25482Y-40491D01*
X06232Y-29491D02*
X25482Y-29491D01*
X06232Y-40491D02*
X06232Y-29491D01*
X25482Y-29491D02*
X25482Y-40491D01*
X25482Y-17680D02*
X25482Y-28680D01*
X06232Y-28680D02*
X06232Y-17680D01*
X06232Y-17680D02*
X25482Y-17680D01*
X06232Y-28680D02*
X25482Y-28680D01*
X06232Y-16869D02*
X25482Y-16869D01*
X06232Y-05869D02*
X25482Y-05869D01*
X06232Y-16869D02*
X06232Y-05869D01*
X25482Y-05869D02*
X25482Y-16869D01*
M02*
