M48
;DRILL file {Pcbnew (2012-jan-04)-stable} date Thu 08 Nov 2012 06:27:45 PM CET
;FORMAT={2:4/ absolute / inch / keep zeros}
FMAT,2
INCH,TZ
T1C0.028
T2C0.040
%
G90
G05
M72
T1
X008832Y007819
X008832Y019630
X008832Y031441
X010882Y006969
X010882Y018780
X010882Y030591
X011382Y009919
X011382Y021730
X011382Y033541
X011582Y012469
X011582Y024280
X011582Y036091
X012032Y010119
X012032Y021930
X012032Y033741
X012582Y008219
X012582Y020030
X012582Y031841
X014382Y012019
X014382Y023830
X014382Y035641
X015682Y010569
X015682Y022380
X015682Y034191
X016232Y012419
X016232Y024230
X016232Y036041
X016632Y012819
X016632Y024630
X016632Y036441
X017032Y013269
X017032Y025080
X017032Y036891
X017432Y011169
X017432Y022980
X017432Y034791
X017832Y013269
X017832Y025080
X017832Y036891
X018232Y012819
X018232Y024630
X018232Y036441
X018682Y014969
X018682Y026780
X018682Y038591
X018882Y013819
X018882Y014469
X018882Y025630
X018882Y026280
X018882Y037441
X018882Y038091
X019182Y006819
X019182Y018630
X019182Y030441
X019282Y010469
X019282Y022280
X019282Y034091
X019682Y013819
X019682Y025630
X019682Y037441
X019707Y007294
X019707Y019105
X019707Y030916
X019732Y008269
X019732Y020080
X019732Y031891
X019832Y014669
X019832Y026480
X019832Y038291
X019982Y009519
X019982Y021330
X019982Y033141
X020132Y011769
X020132Y023580
X020132Y035391
X020382Y010569
X020382Y022380
X020382Y034191
X020682Y011719
X020682Y023530
X020682Y035341
X024132Y012319
X024132Y024130
X024132Y035941
X028911Y007819
X028911Y019630
X028911Y031441
X030961Y006969
X030961Y018780
X030961Y030591
X031461Y009919
X031461Y021730
X031461Y033541
X031661Y012469
X031661Y024280
X031661Y036091
X032111Y010119
X032111Y021930
X032111Y033741
X032661Y008219
X032661Y020030
X032661Y031841
X034461Y012019
X034461Y023830
X034461Y035641
X035761Y010569
X035761Y022380
X035761Y034191
X036311Y012419
X036311Y024230
X036311Y036041
X036711Y012819
X036711Y024630
X036711Y036441
X037111Y013269
X037111Y025080
X037111Y036891
X037511Y011169
X037511Y022980
X037511Y034791
X037911Y013269
X037911Y025080
X037911Y036891
X038311Y012819
X038311Y024630
X038311Y036441
X038761Y014969
X038761Y026780
X038761Y038591
X038961Y013819
X038961Y014469
X038961Y025630
X038961Y026280
X038961Y037441
X038961Y038091
X039261Y006819
X039261Y018630
X039261Y030441
X039361Y010469
X039361Y022280
X039361Y034091
X039761Y013819
X039761Y025630
X039761Y037441
X039786Y007294
X039786Y019105
X039786Y030916
X039811Y008269
X039811Y020080
X039811Y031891
X039911Y014669
X039911Y026480
X039911Y038291
X040061Y009519
X040061Y021330
X040061Y033141
X040211Y011769
X040211Y023580
X040211Y035391
X040461Y010569
X040461Y022380
X040461Y034191
X040761Y011719
X040761Y023530
X040761Y035341
X044211Y012319
X044211Y024130
X044211Y035941
X048990Y007819
X048990Y019630
X048990Y031441
X051040Y006969
X051040Y018780
X051040Y030591
X051540Y009919
X051540Y021730
X051540Y033541
X051740Y012469
X051740Y024280
X051740Y036091
X052190Y010119
X052190Y021930
X052190Y033741
X052740Y008219
X052740Y020030
X052740Y031841
X054540Y012019
X054540Y023830
X054540Y035641
X055840Y010569
X055840Y022380
X055840Y034191
X056390Y012419
X056390Y024230
X056390Y036041
X056790Y012819
X056790Y024630
X056790Y036441
X057190Y013269
X057190Y025080
X057190Y036891
X057590Y011169
X057590Y022980
X057590Y034791
X057990Y013269
X057990Y025080
X057990Y036891
X058390Y012819
X058390Y024630
X058390Y036441
X058840Y014969
X058840Y026780
X058840Y038591
X059040Y013819
X059040Y014469
X059040Y025630
X059040Y026280
X059040Y037441
X059040Y038091
X059340Y006819
X059340Y018630
X059340Y030441
X059440Y010469
X059440Y022280
X059440Y034091
X059840Y013819
X059840Y025630
X059840Y037441
X059865Y007294
X059865Y019105
X059865Y030916
X059890Y008269
X059890Y020080
X059890Y031891
X059990Y014669
X059990Y026480
X059990Y038291
X060140Y009519
X060140Y021330
X060140Y033141
X060290Y011769
X060290Y023580
X060290Y035391
X060540Y010569
X060540Y022380
X060540Y034191
X060840Y011719
X060840Y023530
X060840Y035341
X064290Y012319
X064290Y024130
X064290Y035941
T2
X006982Y011419
X006982Y012419
X006982Y013919
X006982Y014919
X006982Y015919
X006982Y023230
X006982Y024230
X006982Y025730
X006982Y026730
X006982Y027730
X006982Y035041
X006982Y036041
X006982Y037541
X006982Y038541
X006982Y039541
X009332Y014919
X009332Y015919
X009332Y026730
X009332Y027730
X009332Y038541
X009332Y039541
X010332Y014919
X010332Y015919
X010332Y026730
X010332Y027730
X010332Y038541
X010332Y039541
X011332Y014919
X011332Y015919
X011332Y026730
X011332Y027730
X011332Y038541
X011332Y039541
X012282Y006919
X012282Y018730
X012282Y030541
X013282Y006919
X013282Y015919
X013282Y018730
X013282Y027730
X013282Y030541
X013282Y039541
X014282Y006919
X014282Y015919
X014282Y018730
X014282Y027730
X014282Y030541
X014282Y039541
X015282Y006919
X015282Y015919
X015282Y018730
X015282Y027730
X015282Y030541
X015282Y039541
X016282Y006919
X016282Y015919
X016282Y018730
X016282Y027730
X016282Y030541
X016282Y039541
X017282Y006919
X017282Y015919
X017282Y018730
X017282Y027730
X017282Y030541
X017282Y039541
X018282Y006919
X018282Y015919
X018282Y018730
X018282Y027730
X018282Y030541
X018282Y039541
X024732Y006819
X024732Y007819
X024732Y008919
X024732Y009919
X024732Y010919
X024732Y011919
X024732Y018630
X024732Y019630
X024732Y020730
X024732Y021730
X024732Y022730
X024732Y023730
X024732Y030441
X024732Y031441
X024732Y032541
X024732Y033541
X024732Y034541
X024732Y035541
X027061Y011419
X027061Y012419
X027061Y013919
X027061Y014919
X027061Y015919
X027061Y023230
X027061Y024230
X027061Y025730
X027061Y026730
X027061Y027730
X027061Y035041
X027061Y036041
X027061Y037541
X027061Y038541
X027061Y039541
X029411Y014919
X029411Y015919
X029411Y026730
X029411Y027730
X029411Y038541
X029411Y039541
X030411Y014919
X030411Y015919
X030411Y026730
X030411Y027730
X030411Y038541
X030411Y039541
X031411Y014919
X031411Y015919
X031411Y026730
X031411Y027730
X031411Y038541
X031411Y039541
X032361Y006919
X032361Y018730
X032361Y030541
X033361Y006919
X033361Y015919
X033361Y018730
X033361Y027730
X033361Y030541
X033361Y039541
X034361Y006919
X034361Y015919
X034361Y018730
X034361Y027730
X034361Y030541
X034361Y039541
X035361Y006919
X035361Y015919
X035361Y018730
X035361Y027730
X035361Y030541
X035361Y039541
X036361Y006919
X036361Y015919
X036361Y018730
X036361Y027730
X036361Y030541
X036361Y039541
X037361Y006919
X037361Y015919
X037361Y018730
X037361Y027730
X037361Y030541
X037361Y039541
X038361Y006919
X038361Y015919
X038361Y018730
X038361Y027730
X038361Y030541
X038361Y039541
X044811Y006819
X044811Y007819
X044811Y008919
X044811Y009919
X044811Y010919
X044811Y011919
X044811Y018630
X044811Y019630
X044811Y020730
X044811Y021730
X044811Y022730
X044811Y023730
X044811Y030441
X044811Y031441
X044811Y032541
X044811Y033541
X044811Y034541
X044811Y035541
X047140Y011419
X047140Y012419
X047140Y013919
X047140Y014919
X047140Y015919
X047140Y023230
X047140Y024230
X047140Y025730
X047140Y026730
X047140Y027730
X047140Y035041
X047140Y036041
X047140Y037541
X047140Y038541
X047140Y039541
X049490Y014919
X049490Y015919
X049490Y026730
X049490Y027730
X049490Y038541
X049490Y039541
X050490Y014919
X050490Y015919
X050490Y026730
X050490Y027730
X050490Y038541
X050490Y039541
X051490Y014919
X051490Y015919
X051490Y026730
X051490Y027730
X051490Y038541
X051490Y039541
X052440Y006919
X052440Y018730
X052440Y030541
X053440Y006919
X053440Y015919
X053440Y018730
X053440Y027730
X053440Y030541
X053440Y039541
X054440Y006919
X054440Y015919
X054440Y018730
X054440Y027730
X054440Y030541
X054440Y039541
X055440Y006919
X055440Y015919
X055440Y018730
X055440Y027730
X055440Y030541
X055440Y039541
X056440Y006919
X056440Y015919
X056440Y018730
X056440Y027730
X056440Y030541
X056440Y039541
X057440Y006919
X057440Y015919
X057440Y018730
X057440Y027730
X057440Y030541
X057440Y039541
X058440Y006919
X058440Y015919
X058440Y018730
X058440Y027730
X058440Y030541
X058440Y039541
X064890Y006819
X064890Y007819
X064890Y008919
X064890Y009919
X064890Y010919
X064890Y011919
X064890Y018630
X064890Y019630
X064890Y020730
X064890Y021730
X064890Y022730
X064890Y023730
X064890Y030441
X064890Y031441
X064890Y032541
X064890Y033541
X064890Y034541
X064890Y035541
T0
M30
