G04 (created by PCBNEW-RS274X (2012-jan-04)-stable) date Thu 08 Nov 2012 06:26:56 PM CET*
G01*
G70*
G90*
%MOIN*%
G04 Gerber Fmt 3.4, Leading zero omitted, Abs format*
%FSLAX34Y34*%
G04 APERTURE LIST*
%ADD10C,0.006000*%
%ADD11C,0.015000*%
%ADD12R,0.080000X0.080000*%
%ADD13C,0.080000*%
G04 APERTURE END LIST*
G54D10*
G54D11*
X46390Y-40491D02*
X65640Y-40491D01*
X46390Y-29491D02*
X65640Y-29491D01*
X46390Y-40491D02*
X46390Y-29491D01*
X65640Y-29491D02*
X65640Y-40491D01*
X65640Y-17680D02*
X65640Y-28680D01*
X46390Y-28680D02*
X46390Y-17680D01*
X46390Y-17680D02*
X65640Y-17680D01*
X46390Y-28680D02*
X65640Y-28680D01*
X46390Y-16869D02*
X65640Y-16869D01*
X46390Y-05869D02*
X65640Y-05869D01*
X46390Y-16869D02*
X46390Y-05869D01*
X65640Y-05869D02*
X65640Y-16869D01*
X45561Y-05869D02*
X45561Y-16869D01*
X26311Y-16869D02*
X26311Y-05869D01*
X26311Y-05869D02*
X45561Y-05869D01*
X26311Y-16869D02*
X45561Y-16869D01*
X26311Y-28680D02*
X45561Y-28680D01*
X26311Y-17680D02*
X45561Y-17680D01*
X26311Y-28680D02*
X26311Y-17680D01*
X45561Y-17680D02*
X45561Y-28680D01*
X45561Y-29491D02*
X45561Y-40491D01*
X26311Y-40491D02*
X26311Y-29491D01*
X26311Y-29491D02*
X45561Y-29491D01*
X26311Y-40491D02*
X45561Y-40491D01*
X06232Y-40491D02*
X25482Y-40491D01*
X06232Y-29491D02*
X25482Y-29491D01*
X06232Y-40491D02*
X06232Y-29491D01*
X25482Y-29491D02*
X25482Y-40491D01*
X25482Y-17680D02*
X25482Y-28680D01*
X06232Y-28680D02*
X06232Y-17680D01*
X06232Y-17680D02*
X25482Y-17680D01*
X06232Y-28680D02*
X25482Y-28680D01*
X06232Y-16869D02*
X25482Y-16869D01*
X06232Y-05869D02*
X25482Y-05869D01*
X06232Y-16869D02*
X06232Y-05869D01*
X25482Y-05869D02*
X25482Y-16869D01*
G54D12*
X64890Y-32541D03*
G54D13*
X64890Y-33541D03*
X64890Y-34541D03*
X64890Y-35541D03*
G54D12*
X49490Y-39541D03*
G54D13*
X49490Y-38541D03*
X50490Y-39541D03*
X50490Y-38541D03*
X51490Y-39541D03*
X51490Y-38541D03*
G54D12*
X47140Y-39541D03*
G54D13*
X47140Y-38541D03*
X47140Y-37541D03*
G54D12*
X64890Y-30441D03*
G54D13*
X64890Y-31441D03*
G54D12*
X47140Y-36041D03*
G54D13*
X47140Y-35041D03*
G54D12*
X57440Y-39541D03*
X52440Y-30541D03*
X53440Y-30541D03*
X54440Y-30541D03*
X53440Y-39541D03*
X54440Y-39541D03*
X58440Y-39541D03*
X56440Y-39541D03*
X55440Y-39541D03*
X55440Y-30541D03*
X56440Y-30541D03*
X57440Y-30541D03*
X58440Y-30541D03*
X58440Y-18730D03*
X57440Y-18730D03*
X56440Y-18730D03*
X55440Y-18730D03*
X55440Y-27730D03*
X56440Y-27730D03*
X58440Y-27730D03*
X54440Y-27730D03*
X53440Y-27730D03*
X54440Y-18730D03*
X53440Y-18730D03*
X52440Y-18730D03*
X57440Y-27730D03*
X47140Y-24230D03*
G54D13*
X47140Y-23230D03*
G54D12*
X64890Y-18630D03*
G54D13*
X64890Y-19630D03*
G54D12*
X47140Y-27730D03*
G54D13*
X47140Y-26730D03*
X47140Y-25730D03*
G54D12*
X49490Y-27730D03*
G54D13*
X49490Y-26730D03*
X50490Y-27730D03*
X50490Y-26730D03*
X51490Y-27730D03*
X51490Y-26730D03*
G54D12*
X64890Y-20730D03*
G54D13*
X64890Y-21730D03*
X64890Y-22730D03*
X64890Y-23730D03*
G54D12*
X64890Y-08919D03*
G54D13*
X64890Y-09919D03*
X64890Y-10919D03*
X64890Y-11919D03*
G54D12*
X49490Y-15919D03*
G54D13*
X49490Y-14919D03*
X50490Y-15919D03*
X50490Y-14919D03*
X51490Y-15919D03*
X51490Y-14919D03*
G54D12*
X47140Y-15919D03*
G54D13*
X47140Y-14919D03*
X47140Y-13919D03*
G54D12*
X64890Y-06819D03*
G54D13*
X64890Y-07819D03*
G54D12*
X47140Y-12419D03*
G54D13*
X47140Y-11419D03*
G54D12*
X57440Y-15919D03*
X52440Y-06919D03*
X53440Y-06919D03*
X54440Y-06919D03*
X53440Y-15919D03*
X54440Y-15919D03*
X58440Y-15919D03*
X56440Y-15919D03*
X55440Y-15919D03*
X55440Y-06919D03*
X56440Y-06919D03*
X57440Y-06919D03*
X58440Y-06919D03*
X38361Y-06919D03*
X37361Y-06919D03*
X36361Y-06919D03*
X35361Y-06919D03*
X35361Y-15919D03*
X36361Y-15919D03*
X38361Y-15919D03*
X34361Y-15919D03*
X33361Y-15919D03*
X34361Y-06919D03*
X33361Y-06919D03*
X32361Y-06919D03*
X37361Y-15919D03*
X27061Y-12419D03*
G54D13*
X27061Y-11419D03*
G54D12*
X44811Y-06819D03*
G54D13*
X44811Y-07819D03*
G54D12*
X27061Y-15919D03*
G54D13*
X27061Y-14919D03*
X27061Y-13919D03*
G54D12*
X29411Y-15919D03*
G54D13*
X29411Y-14919D03*
X30411Y-15919D03*
X30411Y-14919D03*
X31411Y-15919D03*
X31411Y-14919D03*
G54D12*
X44811Y-08919D03*
G54D13*
X44811Y-09919D03*
X44811Y-10919D03*
X44811Y-11919D03*
G54D12*
X44811Y-20730D03*
G54D13*
X44811Y-21730D03*
X44811Y-22730D03*
X44811Y-23730D03*
G54D12*
X29411Y-27730D03*
G54D13*
X29411Y-26730D03*
X30411Y-27730D03*
X30411Y-26730D03*
X31411Y-27730D03*
X31411Y-26730D03*
G54D12*
X27061Y-27730D03*
G54D13*
X27061Y-26730D03*
X27061Y-25730D03*
G54D12*
X44811Y-18630D03*
G54D13*
X44811Y-19630D03*
G54D12*
X27061Y-24230D03*
G54D13*
X27061Y-23230D03*
G54D12*
X37361Y-27730D03*
X32361Y-18730D03*
X33361Y-18730D03*
X34361Y-18730D03*
X33361Y-27730D03*
X34361Y-27730D03*
X38361Y-27730D03*
X36361Y-27730D03*
X35361Y-27730D03*
X35361Y-18730D03*
X36361Y-18730D03*
X37361Y-18730D03*
X38361Y-18730D03*
X38361Y-30541D03*
X37361Y-30541D03*
X36361Y-30541D03*
X35361Y-30541D03*
X35361Y-39541D03*
X36361Y-39541D03*
X38361Y-39541D03*
X34361Y-39541D03*
X33361Y-39541D03*
X34361Y-30541D03*
X33361Y-30541D03*
X32361Y-30541D03*
X37361Y-39541D03*
X27061Y-36041D03*
G54D13*
X27061Y-35041D03*
G54D12*
X44811Y-30441D03*
G54D13*
X44811Y-31441D03*
G54D12*
X27061Y-39541D03*
G54D13*
X27061Y-38541D03*
X27061Y-37541D03*
G54D12*
X29411Y-39541D03*
G54D13*
X29411Y-38541D03*
X30411Y-39541D03*
X30411Y-38541D03*
X31411Y-39541D03*
X31411Y-38541D03*
G54D12*
X44811Y-32541D03*
G54D13*
X44811Y-33541D03*
X44811Y-34541D03*
X44811Y-35541D03*
G54D12*
X24732Y-32541D03*
G54D13*
X24732Y-33541D03*
X24732Y-34541D03*
X24732Y-35541D03*
G54D12*
X09332Y-39541D03*
G54D13*
X09332Y-38541D03*
X10332Y-39541D03*
X10332Y-38541D03*
X11332Y-39541D03*
X11332Y-38541D03*
G54D12*
X06982Y-39541D03*
G54D13*
X06982Y-38541D03*
X06982Y-37541D03*
G54D12*
X24732Y-30441D03*
G54D13*
X24732Y-31441D03*
G54D12*
X06982Y-36041D03*
G54D13*
X06982Y-35041D03*
G54D12*
X17282Y-39541D03*
X12282Y-30541D03*
X13282Y-30541D03*
X14282Y-30541D03*
X13282Y-39541D03*
X14282Y-39541D03*
X18282Y-39541D03*
X16282Y-39541D03*
X15282Y-39541D03*
X15282Y-30541D03*
X16282Y-30541D03*
X17282Y-30541D03*
X18282Y-30541D03*
X18282Y-18730D03*
X17282Y-18730D03*
X16282Y-18730D03*
X15282Y-18730D03*
X15282Y-27730D03*
X16282Y-27730D03*
X18282Y-27730D03*
X14282Y-27730D03*
X13282Y-27730D03*
X14282Y-18730D03*
X13282Y-18730D03*
X12282Y-18730D03*
X17282Y-27730D03*
X06982Y-24230D03*
G54D13*
X06982Y-23230D03*
G54D12*
X24732Y-18630D03*
G54D13*
X24732Y-19630D03*
G54D12*
X06982Y-27730D03*
G54D13*
X06982Y-26730D03*
X06982Y-25730D03*
G54D12*
X09332Y-27730D03*
G54D13*
X09332Y-26730D03*
X10332Y-27730D03*
X10332Y-26730D03*
X11332Y-27730D03*
X11332Y-26730D03*
G54D12*
X24732Y-20730D03*
G54D13*
X24732Y-21730D03*
X24732Y-22730D03*
X24732Y-23730D03*
G54D12*
X24732Y-08919D03*
G54D13*
X24732Y-09919D03*
X24732Y-10919D03*
X24732Y-11919D03*
G54D12*
X09332Y-15919D03*
G54D13*
X09332Y-14919D03*
X10332Y-15919D03*
X10332Y-14919D03*
X11332Y-15919D03*
X11332Y-14919D03*
G54D12*
X06982Y-15919D03*
G54D13*
X06982Y-14919D03*
X06982Y-13919D03*
G54D12*
X24732Y-06819D03*
G54D13*
X24732Y-07819D03*
G54D12*
X06982Y-12419D03*
G54D13*
X06982Y-11419D03*
G54D12*
X17282Y-15919D03*
X12282Y-06919D03*
X13282Y-06919D03*
X14282Y-06919D03*
X13282Y-15919D03*
X14282Y-15919D03*
X18282Y-15919D03*
X16282Y-15919D03*
X15282Y-15919D03*
X15282Y-06919D03*
X16282Y-06919D03*
X17282Y-06919D03*
X18282Y-06919D03*
M02*
